<svg width="100" height="37" viewBox="0 0 100 37" fill="none" xmlns="http://www.w3.org/2000/svg">
<path d="M34 18.75H34.25V18.5C34.25 14.9925 33.2694 11.5628 31.4308 8.64425C29.5921 5.72563 26.9771 3.44852 23.9148 2.10321C20.8524 0.75782 17.4816 0.405531 14.2294 1.09163C10.9774 1.77771 7.99232 3.47074 5.65085 5.95412C3.30952 8.43735 1.71657 11.5994 1.07133 15.0398C0.426111 18.4802 0.757151 22.0463 2.02312 25.2879C3.28913 28.5295 5.43395 31.3026 8.18855 33.2547C10.9433 35.2069 14.1838 36.25 17.5 36.25H17.75V36V35.1225V34.8725H17.5C14.4531 34.8725 11.4733 33.9143 8.93731 32.1171C6.40115 30.3198 4.42232 27.7636 3.25326 24.7702C2.08417 21.7767 1.77808 18.482 2.37424 15.3032C2.9704 12.1245 4.44159 9.20652 6.59969 6.91763C8.75763 4.6289 11.5052 3.07207 14.494 2.44152C17.4827 1.811 20.5808 2.13445 23.3971 3.37171C26.2136 4.60906 28.6233 6.70551 30.3198 9.3983C32.0163 12.0912 32.9226 15.2587 32.9226 18.5V18.75H33.1726H34ZM13.862 33V33.25H14.112H16.736H16.986V33V9.95999V9.70999H16.736H14.112H13.862V9.95999V33ZM20.3858 33V33.25H20.6358H23.2278H23.4778V33V13.5894L33.5645 25.577L33.7558 25.8043L33.947 25.577L44.0338 13.5894V33V33.25H44.2838H46.8758H47.1258V33V9.95999V9.70999H46.8758H43.3238H43.2073L43.1323 9.79921L33.7558 20.9633L24.3792 9.79921L24.3043 9.70999H24.1878H20.6358H20.3858V9.95999V33ZM59.8973 33V33.25H60.1473H62.7393H62.9893V33V24.4102L73.5325 10.1083L73.8261 9.70999H73.3313H70.2913H70.1696L70.0945 9.80573L61.4582 20.8202L52.7272 9.8047L52.6521 9.70999H52.5313H49.5553H49.0604L49.354 10.1083L59.8973 24.4102V33ZM95.369 33.1607L95.4439 33.25H95.5605H98.9845H99.2345V33V32.968V32.8764L99.1754 32.8065L92.2962 24.674H95.3045C96.0509 24.674 96.7354 24.4925 97.352 24.1271L97.3543 24.1257C97.9851 23.7427 98.4844 23.2443 98.8476 22.6314C99.213 22.0148 99.3945 21.3304 99.3945 20.584V13.832C99.3945 13.0855 99.213 12.4011 98.8476 11.7845C98.4844 11.1717 97.9848 10.6835 97.3532 10.3216C96.7371 9.93482 96.0521 9.74199 95.3045 9.74199H76.1045H75.8545V9.99199V33V33.25H76.1045H78.6965H78.9465V33V24.674H88.2462L95.369 33.1607ZM95.9996 21.2637L95.9994 21.2635L95.9917 21.2712C95.8054 21.4575 95.5816 21.55 95.3045 21.55H79.9445C79.6687 21.55 79.4313 21.4581 79.2215 21.2674C79.0377 21.0818 78.9465 20.8592 78.9465 20.584V13.832C78.9465 13.5548 79.039 13.3311 79.2253 13.1448C79.4376 12.9325 79.6738 12.834 79.9445 12.834H95.3045C95.5744 12.834 95.796 12.9316 95.9842 13.1369L95.9916 13.1449L95.9996 13.1523C96.2049 13.3405 96.3025 13.5621 96.3025 13.832V20.584C96.3025 20.8539 96.2049 21.0755 95.9996 21.2637Z" stroke="black" stroke-width="0.5"/>
</svg>
